<svg width="62" height="62" viewBox="0 0 62 62" fill="none" xmlns="http://www.w3.org/2000/svg">
<circle cx="30.7615" cy="30.7615" r="30.7615" fill="#DC1400"/>
<path d="M51.2691 29.7615C51.8214 29.7615 52.2691 30.2092 52.2691 30.7615C52.2691 31.3138 51.8214 31.7615 51.2691 31.7615L51.2691 29.7615ZM6.47053 31.4686C6.08001 31.0781 6.08001 30.4449 6.47053 30.0544L12.8345 23.6904C13.225 23.2999 13.8582 23.2999 14.2487 23.6904C14.6392 24.0809 14.6392 24.7141 14.2487 25.1046L8.59185 30.7615L14.2487 36.4183C14.6392 36.8089 14.6392 37.442 14.2487 37.8325C13.8582 38.2231 13.225 38.2231 12.8345 37.8325L6.47053 31.4686ZM51.2691 31.7615L7.17764 31.7615L7.17764 29.7615L51.2691 29.7615L51.2691 31.7615Z" fill="black"/>
</svg>
