<svg width="62" height="62" viewBox="0 0 62 62" fill="none" xmlns="http://www.w3.org/2000/svg">
<circle cx="30.7615" cy="30.7615" r="30.7615" transform="matrix(-1 0 0 1 61.5229 0)" fill="#DC1400"/>
<path d="M10.2538 29.7615C9.70156 29.7615 9.25385 30.2092 9.25385 30.7615C9.25385 31.3138 9.70156 31.7615 10.2538 31.7615L10.2538 29.7615ZM55.0524 31.4686C55.4429 31.0781 55.4429 30.4449 55.0524 30.0544L48.6885 23.6904C48.2979 23.2999 47.6648 23.2999 47.2742 23.6904C46.8837 24.0809 46.8837 24.7141 47.2742 25.1046L52.9311 30.7615L47.2742 36.4183C46.8837 36.8089 46.8837 37.442 47.2742 37.8325C47.6648 38.2231 48.2979 38.2231 48.6885 37.8325L55.0524 31.4686ZM10.2538 31.7615L54.3453 31.7615L54.3453 29.7615L10.2538 29.7615L10.2538 31.7615Z" fill="black"/>
</svg>
